HIERARCHY
ROOT Hips
{
     OFFSET 22.05200 98.00580 -43.46450
     CHANNELS 6 Xposition Yposition Zposition Zrotation Xrotation Yrotation
     JOINT Spine
     {
          OFFSET 0.00000 11.89050 0.00000
          CHANNELS 3 Zrotation Xrotation Yrotation
          JOINT Spine1
          {
               OFFSET 0.00000 25.65740 0.12766
               CHANNELS 3 Zrotation Xrotation Yrotation
               JOINT HEad
               {
                    OFFSET 0.00000 8.73416 0.01134
                    CHANNELS 3 Zrotation Xrotation Yrotation
                    End Site
                    {
                         OFFSET -0.29000 12.77420 2.51395
                    }
               }
               JOINT LeftShoulder1
               {
                    OFFSET 8.99000 -0.36225 -0.22000
                    CHANNELS 3 Zrotation Xrotation Yrotation
                    JOINT LeftArm
                    {
                         OFFSET 10.28270 -0.00338 0.32212
                         CHANNELS 3 Zrotation Xrotation Yrotation
                         JOINT LeftForeArm
                         {
                              OFFSET 32.76690 0.09914 -1.42434
                              CHANNELS 3 Zrotation Xrotation Yrotation
                              JOINT LeftHand
                              {
                                   OFFSET 27.56430 0.08536 1.02216
                                   CHANNELS 3 Zrotation Xrotation Yrotation
                                   End Site
                                   {
                                        OFFSET 16.74430 -0.60000 1.50291
                                   }
                              }
                         }
                    }
               }
               JOINT RightShoulder
               {
                    OFFSET -8.99000 -0.36225 -0.22000
                    CHANNELS 3 Zrotation Xrotation Yrotation
                    JOINT RightArm
                    {
                         OFFSET -10.28270 -0.00338 0.32212
                         CHANNELS 3 Zrotation Xrotation Yrotation
                         JOINT RightForeArm
                         {
                              OFFSET -32.89710 0.09914 -1.42434
                              CHANNELS 3 Zrotation Xrotation Yrotation
                              JOINT RightHand
                              {
                                   OFFSET -27.49210 0.08536 1.02216
                                   CHANNELS 3 Zrotation Xrotation Yrotation
                                   End Site
                                   {
                                        OFFSET -16.63120 -0.60000 1.50291
                                   }
                              }
                         }
                    }
               }
          }
     }
     JOINT LeftUpLeg
     {
          OFFSET 8.94580 -8.66707 0.10165
          CHANNELS 3 Zrotation Xrotation Yrotation
          JOINT LeftLeg
          {
               OFFSET 0.00000 -44.42270 1.37270
               CHANNELS 3 Zrotation Xrotation Yrotation
               JOINT LeftFoot
               {
                    OFFSET -0.25355 -42.09240 -1.46059
                    CHANNELS 3 Zrotation Xrotation Yrotation
                    JOINT LeftToes
                    {
                         OFFSET -0.04000 -4.41509 8.49910
                         CHANNELS 3 Zrotation Xrotation Yrotation
                         End Site
                         {
                              OFFSET 0.08000 -0.04745 9.77979
                         }
                    }
               }
          }
     }
     JOINT RightUpLeg
     {
          OFFSET -8.94580 -8.66707 0.10165
          CHANNELS 3 Zrotation Xrotation Yrotation
          JOINT RightLeg
          {
               OFFSET 0.00000 -44.42270 1.37270
               CHANNELS 3 Zrotation Xrotation Yrotation
               JOINT RightFoot
               {
                    OFFSET 0.25355 -42.09240 -1.46059
                    CHANNELS 3 Zrotation Xrotation Yrotation
                    JOINT RightToes
                    {
                         OFFSET 0.04000 -4.41509 8.49910
                         CHANNELS 3 Zrotation Xrotation Yrotation
                         End Site
                         {
                              OFFSET -0.08000 -0.13745 9.77979
                         }
                    }
               }
          }
     }
}
MOTION
Frames: 12
Frame Time: 0.01667
22.05200 98.00580 -43.46450 -6.39141 -8.35633 -32.07470 6.12848 5.18165 0.17002 3.76137 11.02920 1.04164 -11.28670 12.43870 11.16050 0.00000 0.00000 0.00000 -83.11280 -40.23510 -59.37780 11.07350 32.13850 -93.46360 38.44990 12.79120 12.93830 11.14940 0.85333 3.24192 72.54690 -12.21710 72.60880 3.65698 31.48650 90.18480 -8.18568 9.08039 8.38658 20.63080 -8.59710 3.07803 -6.15255 13.71060 14.48280 -10.64950 4.02750 1.04723 5.29966 7.67039 -1.29564 -7.01352 -0.24622 -2.47260 2.72658 32.11910 -4.59696 8.58748 -29.40500 1.38961 9.76490 28.88950 -21.41860 
22.34730 97.78800 -42.78950 -6.63199 -8.26544 -32.29250 6.21552 5.21029 0.11897 3.90644 11.08540 0.97358 -11.28220 12.59760 11.04220 0.00000 0.00000 0.00000 -82.46170 -39.84080 -58.71060 10.69970 31.68600 -92.51490 38.30790 12.63760 12.51320 11.35970 0.86187 3.23565 72.23900 -12.34160 72.24120 3.65780 31.45690 90.09270 -8.13652 9.08429 8.41017 20.50090 -8.27407 3.42278 -5.95617 13.84100 13.97140 -11.09180 4.00429 1.09052 5.70615 8.34893 -1.99805 -7.13318 -0.17234 -2.36266 2.64741 32.45730 -4.49488 8.42672 -29.18000 1.34087 9.18212 27.80170 -20.89760 
22.67760 97.60840 -42.07900 -6.85038 -8.17526 -32.55320 6.20907 5.25320 0.06176 4.07156 11.15130 0.87430 -11.39780 12.79490 10.99740 0.00000 0.00000 0.00000 -82.11030 -39.64120 -58.22300 10.32290 31.38170 -91.80640 38.12810 12.50330 12.15120 11.58160 0.87198 3.23681 71.81680 -12.45810 71.99240 3.64066 31.43190 89.95670 -8.13979 9.08390 8.41060 20.30270 -7.92593 3.80896 -5.89582 14.08470 13.73660 -10.46750 3.64857 0.99641 5.21110 7.76574 -2.34462 -7.29665 -0.03883 -2.19141 2.52931 32.64470 -4.35192 8.50995 -28.94820 1.34003 8.71168 26.88680 -20.50610 
23.03530 97.47600 -41.34660 -7.02147 -8.10852 -32.83780 6.10178 5.30822 -0.00580 4.22980 11.22590 0.73103 -11.58840 12.93990 11.08730 0.00000 0.00000 0.00000 -82.05630 -39.64360 -57.90020 9.97937 31.25350 -91.39760 37.96710 12.40240 11.88240 11.81800 0.88520 3.25441 71.36350 -12.56760 71.86340 3.58347 31.41880 89.81650 -8.13941 9.08412 8.40794 20.00520 -7.57455 4.23696 -5.91505 14.36920 13.72200 -8.93838 3.11056 0.80629 3.89152 6.01033 -2.28099 -7.52288 0.15436 -2.00757 2.33189 32.69940 -4.12571 8.87780 -28.76900 1.39793 8.41581 26.28810 -20.29350 
23.41700 97.38660 -40.60510 -7.12806 -8.08188 -33.13820 5.91564 5.37181 -0.07130 4.34032 11.30970 0.57340 -11.75950 13.00830 11.27630 0.00000 0.00000 0.00000 -82.21890 -39.76200 -57.73730 9.73636 31.26750 -91.26940 37.87870 12.34020 11.71310 12.09570 0.90219 3.28416 70.95730 -12.70580 71.82480 3.47029 31.42260 89.73710 -8.10873 9.08689 8.41751 19.57650 -7.29156 4.78966 -5.85447 14.75200 13.71100 -7.20591 2.66770 0.61793 2.01439 3.40816 -1.93795 -7.82482 0.38257 -1.82159 2.05942 32.66160 -3.83820 9.39372 -28.61760 1.48538 8.25805 25.94720 -20.23510 
23.82080 97.32990 -39.86720 -7.17564 -8.09140 -33.44590 5.69083 5.44028 -0.11578 4.36411 11.40450 0.45145 -11.81660 13.06310 11.44010 0.00000 0.00000 0.00000 -82.48520 -39.86810 -57.75280 9.65880 31.35250 -91.34880 37.86540 12.31680 11.64490 12.44500 0.92093 3.30302 70.66460 -12.89960 71.83520 3.31133 31.44340 89.77110 -8.06611 9.08971 8.44724 19.05020 -7.17499 5.49244 -5.62756 15.37030 13.56000 -5.96931 2.52993 0.49997 -0.15552 0.34030 -1.60079 -8.18506 0.61168 -1.59213 1.76099 32.57010 -3.58506 9.87978 -28.42810 1.56236 8.16061 25.71020 -20.27800 
24.24300 97.29440 -39.14290 -7.18371 -8.10777 -33.74830 5.46279 5.50587 -0.12430 4.28110 11.50140 0.40609 -11.69170 13.17070 11.47710 0.00000 0.00000 0.00000 -82.74060 -39.85350 -57.95270 9.78004 31.43610 -91.54500 37.90510 12.33150 11.68120 12.86750 0.93651 3.27968 70.52800 -13.13330 71.85260 3.19112 31.47160 89.89950 -8.05479 9.08751 8.50120 18.52920 -7.27037 6.19994 -5.33189 16.26120 13.39390 -5.50557 2.75079 0.46790 -2.44736 -2.84775 -1.58516 -8.56479 0.80488 -1.29460 1.47805 32.45460 -3.43158 10.26200 -28.15950 1.61080 8.06620 25.45690 -20.39440 
24.68020 97.27370 -38.43550 -7.16463 -8.09281 -34.05380 5.24822 5.55553 -0.09101 4.11172 11.57450 0.45109 -11.40220 13.31160 11.38910 0.00000 0.00000 0.00000 -82.89920 -39.69210 -58.27350 10.06770 31.47200 -91.77360 37.98180 12.37940 11.80950 13.29660 0.94482 3.21028 70.57810 -13.36310 71.84410 3.18792 31.50090 90.05150 -8.10584 9.07610 8.58996 18.10920 -7.51627 6.69343 -5.16807 17.28220 13.48580 -5.66579 3.21973 0.50268 -4.69997 -5.82739 -1.99648 -8.94258 0.92568 -0.96418 1.20940 32.33160 -3.32525 10.61460 -27.82990 1.64611 7.98669 25.20840 -20.60870 
25.13030 97.27100 -37.74210 -7.11732 -8.02324 -34.39640 5.05173 5.57784 -0.02695 3.92129 11.59590 0.55828 -11.09260 13.39420 11.27700 0.00000 0.00000 0.00000 -82.95760 -39.47610 -58.59290 10.40450 31.45740 -91.97020 38.06790 12.44080 11.97630 13.60880 0.94795 3.14401 70.84430 -13.54440 71.81020 3.24945 31.54120 90.17290 -8.20371 9.05604 8.72888 17.80250 -7.78843 6.89967 -5.24715 18.22870 13.94770 -6.09440 3.69316 0.56558 -6.68034 -8.30088 -2.63303 -9.33777 0.95290 -0.64813 0.95542 32.19770 -3.16011 11.06350 -27.48490 1.69529 7.99025 25.10410 -20.97360 
25.58970 97.29390 -37.05800 -7.04406 -7.89914 -34.80400 4.87795 5.57308 0.04074 3.79378 11.56130 0.66536 -10.95900 13.35910 11.26960 0.00000 0.00000 0.00000 -83.01050 -39.36320 -58.81150 10.65840 31.43100 -92.11250 38.12260 12.48930 12.11020 13.69560 0.95292 3.15080 71.32300 -13.63820 71.79370 3.23247 31.60470 90.25390 -8.30424 9.03316 8.90218 17.54950 -7.99274 6.96926 -5.49364 18.99240 14.59770 -6.42419 3.91314 0.60921 -8.18044 -10.08830 -3.23518 -9.78074 0.89797 -0.36453 0.74898 32.03330 -2.87254 11.64990 -27.14290 1.76653 8.12059 25.23030 -21.51600 
26.05230 97.34180 -36.38350 -6.96355 -7.73228 -35.27750 4.73137 5.55324 0.08917 3.78602 11.49220 0.72089 -11.09160 13.23740 11.43280 0.00000 0.00000 0.00000 -83.15800 -39.45550 -58.89870 10.76680 31.43580 -92.20950 38.13250 12.50880 12.16670 13.53110 0.96407 3.26375 71.95490 -13.61770 71.84290 3.05052 31.69020 90.29660 -8.38081 9.01369 9.06141 17.28810 -8.11600 7.13137 -5.72554 19.60550 15.13800 -6.45640 3.77916 0.60577 -9.18246 -11.22690 -3.71000 -10.26640 0.79124 -0.12240 0.61154 31.82740 -2.44547 12.28770 -26.78600 1.84150 8.34712 25.51680 -22.20950 
26.51370 97.40270 -35.72530 -6.90294 -7.54181 -35.79810 4.60557 5.53452 0.11995 3.88434 11.42170 0.72810 -11.38430 13.10070 11.73740 0.00000 0.00000 0.00000 -83.38880 -39.72090 -58.87600 10.75390 31.48130 -92.27220 38.12790 12.50330 12.15120 13.21200 0.98005 3.45352 72.63910 -13.49420 71.96470 2.74699 31.78510 90.28780 -8.42946 8.99979 9.18363 16.99560 -8.19293 7.47580 -5.81276 20.15500 15.44010 -6.25689 3.41946 0.56849 -9.90222 -12.01410 -4.08876 -10.75890 0.65896 0.07355 0.53579 31.59840 -1.89830 12.81450 -26.39450 1.88919 8.60125 25.81880 -23.00780 
